<svg xmlns="http://www.w3.org/2000/svg" viewBox="0 0 800 520"><defs><linearGradient id="g" x1="0" y1="0" x2="1" y2="1"><stop stop-color="#8A2BE2"/><stop offset="1" stop-color="#4b177f"/></linearGradient></defs><rect width="800" height="520" rx="40" fill="url(#g)"/><circle cx="650" cy="90" r="150" fill="#fff" opacity=".08"/><circle cx="120" cy="470" r="170" fill="#fff" opacity=".06"/><ellipse cx="405" cy="325" rx="210" ry="48" fill="#000" opacity=".18"/><circle cx="405" cy="250" r="150" fill="#fff"/><circle cx="405" cy="250" r="120" fill="#f4efe8"/><path d="M305 235c45-55 92-78 145-54 42 19 75 14 110-16-5 61-34 111-93 131-66 22-119 1-162-61Z" fill="#e8a24b"/><circle cx="355" cy="250" r="15" fill="#5b3821"/><circle cx="454" cy="267" r="15" fill="#5b3821"/><path d="M370 307c31 18 62 17 91-2" fill="none" stroke="#5b3821" stroke-width="10" stroke-linecap="round"/><text x="44" y="76" fill="#fff" font-family="Arial,sans-serif" font-size="32" font-weight="700">COMIDA</text></svg>